<svg version="1.1" xmlns="http://www.w3.org/2000/svg" xmlns:xlink="http://www.w3.org/1999/xlink" width="28.55403" height="25.38542" viewBox="0,0,28.55403,25.38542"><g transform="translate(-384.83967,-210.99564)"><g stroke-miterlimit="10"><path d="" fill-opacity="0.01569" fill="#d9d9d9" stroke="none" stroke-width="0" stroke-linecap="butt" stroke-linejoin="miter"/><path d="" fill="none" stroke="#ffffff" stroke-width="1.5" stroke-linecap="round" stroke-linejoin="round"/><path d="" fill="none" stroke="#ffffff" stroke-width="1.5" stroke-linecap="round" stroke-linejoin="round"/><path d="" fill="none" stroke="#ffffff" stroke-width="1.5" stroke-linecap="round" stroke-linejoin="round"/><path d="M397.76721,223.94769v-2.11559l1.76299,1.0578l1.76299,1.0578l-1.76299,1.0578l-1.76299,1.0578z" fill="none" stroke="#3f3f3f" stroke-width="1.5" stroke-linecap="butt" stroke-linejoin="round"/><path d="M392.47823,221.4795c0,0 1.27432,-1.43505 1.85893,-2.01965c1.14852,-1.14854 2.73522,-1.85894 4.48784,-1.85894c3.50522,0 6.34678,2.84156 6.34678,6.34679c0,3.50522 -2.84156,6.34678 -6.34678,6.34678c-1.75263,0 -3.33933,-0.71038 -4.48784,-1.85894" fill="none" stroke="#3f3f3f" stroke-width="1.5" stroke-linecap="round" stroke-linejoin="round"/><path d="M395.29903,221.4795h-2.8208v-2.82079" fill="none" stroke="#3f3f3f" stroke-width="1.5" stroke-linecap="round" stroke-linejoin="round"/><path d="M384.83971,215.68988c0,-0.69338 0.0994,-2.35106 1.14101,-3.40858c1.45236,-1.2303 2.2567,-1.28566 2.97996,-1.28566c4.68329,0 14.36209,0 14.59323,0c0.66475,0 2.21281,0.02018 3.45916,1.2894c1.48941,1.34924 1.42713,2.72344 1.42713,3.32578c0,2.59083 0,8.16988 0,12.72495c0,0.724 -0.50658,2.1032 -1.52001,3.0291c-0.94927,0.92118 -2.5646,1.43211 -3.36628,1.43211c-5.13384,0 -11.12455,0 -13.92664,0c-0.63412,0 -2.27458,-0.38991 -3.3664,-1.39262c-1.07845,-0.8807 -1.4212,-2.40924 -1.4212,-3.14768c0,0 0,-9.97131 0,-12.56679z" fill="none" stroke="none" stroke-width="0" stroke-linecap="butt" stroke-linejoin="miter"/><path d="M391.55256,236.38106c-2.76142,0 -5,-2.23858 -5,-5v-12.30056c0,-2.76142 2.23858,-5 5,-5h16.84114c2.76142,0 5,2.23858 5,5v12.30056c0,2.76142 -2.23858,5 -5,5z" fill-opacity="0.00392" fill="#00ffff" stroke="none" stroke-width="0" stroke-linecap="butt" stroke-linejoin="miter"/><path d="M410.5953,231.95839l-6.16988,-6.16988" fill="none" stroke="#919191" stroke-width="1.5" stroke-linecap="round" stroke-linejoin="round"/><path d="M404.42542,231.95836l6.16988,-6.16988" fill="none" stroke="#919191" stroke-width="1.5" stroke-linecap="round" stroke-linejoin="round"/></g></g></svg>