<svg version="1.1" xmlns="http://www.w3.org/2000/svg" xmlns:xlink="http://www.w3.org/1999/xlink" width="40.00001" height="39.99999" viewBox="0,0,40.00001,39.99999"><defs><linearGradient x1="400.0001" y1="205.00011" x2="400.0001" y2="245.00011" gradientUnits="userSpaceOnUse" id="color-1"><stop offset="0" stop-color="#ffe082"/><stop offset="1" stop-color="#f2a100"/></linearGradient><linearGradient x1="400.21804" y1="212.65304" x2="400.21804" y2="236.47485" gradientUnits="userSpaceOnUse" id="color-2"><stop offset="0" stop-color="#ffffff"/><stop offset="1" stop-color="#ffffff" stop-opacity="0.67059"/></linearGradient><linearGradient x1="406.76904" y1="212.65304" x2="406.76904" y2="218.60848" gradientUnits="userSpaceOnUse" id="color-3"><stop offset="0" stop-color="#ffffff"/><stop offset="1" stop-color="#ffffff" stop-opacity="0.67059"/></linearGradient><linearGradient x1="403.49354" y1="224.56394" x2="403.49354" y2="230.51939" gradientUnits="userSpaceOnUse" id="color-4"><stop offset="0" stop-color="#ffffff"/><stop offset="1" stop-color="#ffffff" stop-opacity="0.67059"/></linearGradient><linearGradient x1="396.94254" y1="224.56395" x2="396.94254" y2="230.51939" gradientUnits="userSpaceOnUse" id="color-5"><stop offset="0" stop-color="#ffffff"/><stop offset="1" stop-color="#ffffff" stop-opacity="0.67059"/></linearGradient><linearGradient x1="409.11258" y1="235.56917" x2="409.11258" y2="240.86716" gradientTransform="translate(-3526.13924,-2086.60884) scale(8.7108,8.7108)" gradientUnits="userSpaceOnUse" id="color-6"><stop offset="0" stop-color="#ffffff"/><stop offset="1" stop-color="#ffffff" stop-opacity="0.22745"/></linearGradient></defs><g transform="translate(-380.00009,-205.0001)"><g stroke-miterlimit="10"><path d="M380.00012,224.64296c0,-6.5333 0,-10.77784 1.27167,-13.27284c1.11833,-2.195 2.90334,-3.98001 5.09834,-5.09834c2.49667,-1.27167 6.73954,-1.27167 13.27284,-1.27167h0.71429c6.535,0 10.77785,0 13.27285,1.27167c2.195,1.11833 3.98,2.90334 5.0983,5.09834c1.2717,2.495 1.2717,6.73954 1.2717,13.27284v0.71429c0,6.5333 0,10.77785 -1.2717,13.27285c-1.1183,2.195 -2.9033,3.98 -5.0983,5.0983c-2.495,1.2717 -6.73786,1.2717 -13.27286,1.2717h-0.71429c-6.5333,0 -10.77618,0 -13.27285,-1.2717c-2.195,-1.1183 -3.98001,-2.9033 -5.09834,-5.0983c-1.27167,-2.495 -1.27167,-6.73955 -1.27167,-13.27285z" fill="url(#color-1)" stroke="none" stroke-width="1" stroke-linecap="butt" stroke-linejoin="miter"/><path d="M390.68932,235.28376v-21.43963c0,-0.65782 0.53327,-1.19109 1.19109,-1.19109h11.9109v5.95545h5.95545v16.67527c0,0.65784 -0.53325,1.19109 -1.19108,1.19109h-16.67527c-0.65783,0 -1.19109,-0.53325 -1.19109,-1.19109z" fill="none" stroke="url(#color-2)" stroke-width="1.5" stroke-linecap="round" stroke-linejoin="round"/><path d="M409.74676,218.60848l-5.95545,-5.95545" fill="none" stroke="url(#color-3)" stroke-width="1.5" stroke-linecap="round" stroke-linejoin="round"/><path d="M402.00467,224.56394l2.97773,2.97772l-2.97773,2.97773" fill="none" stroke="url(#color-4)" stroke-width="1.5" stroke-linecap="round" stroke-linejoin="round"/><path d="M398.43141,230.51939l-2.97773,-2.97773l2.97773,-2.97772" fill="none" stroke="url(#color-5)" stroke-width="1.5" stroke-linecap="round" stroke-linejoin="round"/><text transform="translate(404.80079,239.5427) scale(0.1148,0.1148)" font-size="40" xml:space="preserve" fill="url(#color-6)" stroke="none" stroke-width="1" stroke-linecap="butt" stroke-linejoin="miter" font-family="&quot;MiSans-Heavy&quot;, Sans Serif" font-weight="normal" text-anchor="start"><tspan x="0" dy="0">CPP</tspan></text></g></g></svg>