<svg version="1.1" xmlns="http://www.w3.org/2000/svg" xmlns:xlink="http://www.w3.org/1999/xlink" width="42.00001" height="41.99999" viewBox="0,0,42.00001,41.99999"><g transform="translate(-379.00002,-204.00002)"><g fill="none" stroke="#a6a6a6" stroke-width="2" stroke-miterlimit="10"><path d="M380.00005,224.64287c0,-6.5333 0,-10.77784 1.27167,-13.27284c1.11833,-2.195 2.90334,-3.98001 5.09834,-5.09834c2.49667,-1.27167 6.73954,-1.27167 13.27284,-1.27167h0.71429c6.535,0 10.77785,0 13.27285,1.27167c2.195,1.11833 3.98,2.90334 5.0983,5.09834c1.2717,2.495 1.2717,6.73954 1.2717,13.27284v0.71429c0,6.5333 0,10.77785 -1.2717,13.27285c-1.1183,2.195 -2.9033,3.98 -5.0983,5.0983c-2.495,1.2717 -6.73786,1.2717 -13.27286,1.2717h-0.71429c-6.5333,0 -10.77618,0 -13.27285,-1.2717c-2.195,-1.1183 -3.98001,-2.9033 -5.09834,-5.0983c-1.27167,-2.495 -1.27167,-6.73955 -1.27167,-13.27285z"/></g></g></svg>