<svg version="1.1" xmlns="http://www.w3.org/2000/svg" xmlns:xlink="http://www.w3.org/1999/xlink" width="40.00001" height="39.99999" viewBox="0,0,40.00001,39.99999"><defs><linearGradient x1="400.0001" y1="205.00012" x2="400.0001" y2="245.00012" gradientUnits="userSpaceOnUse" id="color-1"><stop offset="0" stop-color="#ffe082"/><stop offset="1" stop-color="#f2a100"/></linearGradient><linearGradient x1="400" y1="214.41737" x2="400" y2="235.58263" gradientUnits="userSpaceOnUse" id="color-2"><stop offset="0" stop-color="#ffffff"/><stop offset="1" stop-color="#ffffff" stop-opacity="0.58039"/></linearGradient><linearGradient x1="400" y1="220.27793" x2="400" y2="222.07906" gradientUnits="userSpaceOnUse" id="color-3"><stop offset="0" stop-color="#ffffff"/><stop offset="1" stop-color="#ffffff" stop-opacity="0.58039"/></linearGradient><linearGradient x1="400" y1="229.97868" x2="400" y2="231.7798" gradientUnits="userSpaceOnUse" id="color-4"><stop offset="0" stop-color="#ffffff"/><stop offset="1" stop-color="#ffffff" stop-opacity="0.58039"/></linearGradient><linearGradient x1="400" y1="221.47246" x2="400" y2="230.87924" gradientUnits="userSpaceOnUse" id="color-5"><stop offset="0" stop-color="#ffffff"/><stop offset="1" stop-color="#ffffff" stop-opacity="0.58039"/></linearGradient></defs><g transform="translate(-380.00009,-205.00011)"><g stroke-miterlimit="10"><path d="M380.00012,224.64296c0,-6.5333 0,-10.77784 1.27167,-13.27284c1.11833,-2.195 2.90334,-3.98001 5.09834,-5.09834c2.49667,-1.27167 6.73954,-1.27167 13.27284,-1.27167h0.71429c6.535,0 10.77785,0 13.27285,1.27167c2.195,1.11833 3.98,2.90334 5.0983,5.09834c1.2717,2.495 1.2717,6.73954 1.2717,13.27284v0.71429c0,6.5333 0,10.77785 -1.2717,13.27285c-1.1183,2.195 -2.9033,3.98 -5.0983,5.0983c-2.495,1.2717 -6.73786,1.2717 -13.27286,1.2717h-0.71429c-6.5333,0 -10.77618,0 -13.27285,-1.2717c-2.195,-1.1183 -3.98001,-2.9033 -5.09834,-5.0983c-1.27167,-2.495 -1.27167,-6.73955 -1.27167,-13.27285z" fill="url(#color-1)" stroke="none" stroke-width="1" stroke-linecap="butt" stroke-linejoin="miter"/><path d="M391.18114,235.58263c-0.97411,0 -1.76377,-0.78966 -1.76377,-1.76377v-17.63772c0,-0.97411 0.78967,-1.76377 1.76377,-1.76377h17.63772c0.97411,0 1.76377,0.78966 1.76377,1.76377v17.63772c0,0.97411 -0.78967,1.76377 -1.76377,1.76377z" fill="none" stroke="url(#color-2)" stroke-width="1.5" stroke-linecap="butt" stroke-linejoin="round"/><path d="M395.29661,222.06038v-1.76377h9.40678v1.76377" fill="none" stroke="url(#color-3)" stroke-width="1.5" stroke-linecap="round" stroke-linejoin="round"/><path d="M398.82415,230.87924h2.3517" fill="none" stroke="url(#color-4)" stroke-width="1.5" stroke-linecap="round" stroke-linejoin="round"/><path d="M400,230.87925v-9.40679" fill="none" stroke="url(#color-5)" stroke-width="1.5" stroke-linecap="round" stroke-linejoin="round"/></g></g></svg>