<svg version="1.1" xmlns="http://www.w3.org/2000/svg" xmlns:xlink="http://www.w3.org/1999/xlink" width="653.14104" height="381.34739" viewBox="0,0,653.14104,381.34739"><g transform="translate(-73.24778,-28.71774)"><g stroke-width="0" stroke-miterlimit="10"><path d="M86.29387,410.06513c-7.20516,0 -13.04609,-5.84094 -13.04609,-13.04609v-355.2552c0,-7.20516 5.84093,-13.04609 13.04609,-13.04609h627.04885c7.20516,0 13.0461,5.84094 13.0461,13.0461v355.2552c0,7.20516 -5.84094,13.04609 -13.0461,13.04609z" fill="#ffffff" stroke="none"/><path d="M672.26298,37.59277c0,-0.63227 0.09065,-2.14386 1.04046,-3.10818c1.32436,-1.12186 2.05781,-1.17235 2.71732,-1.17235c4.27053,0 13.09631,0 13.30708,0c0.60617,0 2.0178,0.0184 3.1543,1.17575c1.35814,1.23032 1.30135,2.48342 1.30135,3.03268c0,2.36248 0,7.44984 0,11.60346c0,0.66018 -0.46195,1.91784 -1.38605,2.76214c-0.8656,0.84001 -2.33857,1.30589 -3.0696,1.30589c-4.68137,0 -10.14411,0 -12.69923,0c-0.57823,0 -2.07411,-0.35553 -3.0697,-1.26987c-0.98341,-0.80308 -1.29594,-2.19689 -1.29594,-2.87026c0,0 0,-9.09251 0,-11.45925z" fill-opacity="0.01569" fill="#ededed" stroke="#000000"/><path d="M671.74212,36.5253c0,-0.63227 0.09065,-2.14386 1.04046,-3.10818c1.32436,-1.12186 2.05781,-1.17235 2.71732,-1.17235c4.27053,0 13.09631,0 13.30708,0c0.60617,0 2.0178,0.0184 3.1543,1.17575c1.35814,1.23032 1.30135,2.48342 1.30135,3.03268c0,2.36248 0,7.44984 0,11.60346c0,0.66018 -0.46195,1.91784 -1.38605,2.76214c-0.8656,0.84001 -2.33857,1.30589 -3.0696,1.30589c-4.68137,0 -10.14411,0 -12.69923,0c-0.57823,0 -2.07411,-0.35553 -3.0697,-1.26987c-0.98341,-0.80308 -1.29594,-2.19689 -1.29594,-2.87026c0,0 0,-9.09251 0,-11.45925z" fill-opacity="0.01569" fill="#ededed" stroke="#000000"/><path d="M696.0719,38.69422c0,-0.63227 0.09065,-2.14386 1.04046,-3.10818c1.32436,-1.12186 2.05781,-1.17235 2.71732,-1.17235c4.27053,0 13.09631,0 13.30708,0c0.60617,0 2.0178,0.0184 3.1543,1.17575c1.35814,1.23032 1.30135,2.48342 1.30135,3.03268c0,2.36248 0,7.44984 0,11.60346c0,0.66018 -0.46195,1.91784 -1.38605,2.76214c-0.8656,0.84001 -2.33857,1.30589 -3.0696,1.30589c-4.68137,0 -10.14411,0 -12.69923,0c-0.57823,0 -2.07411,-0.35553 -3.0697,-1.26987c-0.98341,-0.80308 -1.29594,-2.19689 -1.29594,-2.87026c0,0 0,-9.09251 0,-11.45925z" fill-opacity="0.01569" fill="#ededed" stroke="#000000"/><path d="M674.75612,37.37843c0,-0.63227 0.09065,-2.14386 1.04046,-3.10818c1.32436,-1.12186 2.05781,-1.17235 2.71732,-1.17235c4.27053,0 13.09631,0 13.30708,0c0.60617,0 2.0178,0.0184 3.1543,1.17575c1.35814,1.23032 1.30135,2.48342 1.30135,3.03268c0,2.36248 0,7.44984 0,11.60346c0,0.66018 -0.46195,1.91784 -1.38605,2.76214c-0.8656,0.84001 -2.33857,1.30589 -3.0696,1.30589c-4.68137,0 -10.14411,0 -12.69923,0c-0.57823,0 -2.07411,-0.35553 -3.0697,-1.26987c-0.98341,-0.80308 -1.29594,-2.19689 -1.29594,-2.87026c0,0 0,-9.09251 0,-11.45925z" fill-opacity="0.01569" fill="#ededed" stroke="#000000"/><path d="M676.33505,37.37843c0,-0.63227 0.09065,-2.14386 1.04046,-3.10818c1.32436,-1.12186 2.05781,-1.17235 2.71732,-1.17235c4.27053,0 13.09631,0 13.30708,0c0.60617,0 2.0178,0.0184 3.1543,1.17575c1.35814,1.23032 1.30135,2.48342 1.30135,3.03268c0,2.36248 0,7.44984 0,11.60346c0,0.66018 -0.46195,1.91784 -1.38605,2.76214c-0.8656,0.84001 -2.33857,1.30589 -3.0696,1.30589c-4.68137,0 -10.14411,0 -12.69923,0c-0.57823,0 -2.07411,-0.35553 -3.0697,-1.26987c-0.98341,-0.80308 -1.29594,-2.19689 -1.29594,-2.87026c0,0 0,-9.09251 0,-11.45925z" fill-opacity="0.01569" fill="#ededed" stroke="#000000"/><path d="M653.17702,37.64159c0,-0.63227 0.09065,-2.14386 1.04046,-3.10818c1.32436,-1.12186 2.05781,-1.17235 2.71732,-1.17235c4.27053,0 13.09631,0 13.30708,0c0.60617,0 2.0178,0.0184 3.1543,1.17575c1.35814,1.23032 1.30135,2.48342 1.30135,3.03268c0,2.36248 0,7.44984 0,11.60346c0,0.66018 -0.46195,1.91784 -1.38605,2.76214c-0.8656,0.84001 -2.33857,1.30589 -3.0696,1.30589c-4.68137,0 -10.14411,0 -12.69923,0c-0.57823,0 -2.07411,-0.35553 -3.0697,-1.26987c-0.98341,-0.80308 -1.29594,-2.19689 -1.29594,-2.87026c0,0 0,-9.09251 0,-11.45925z" fill-opacity="0.01569" fill="#ededed" stroke="#000000"/><path d="M654.83057,36.43343c0,-0.66287 0.09504,-2.2476 1.09081,-3.25858c1.38845,-1.17615 2.15739,-1.22907 2.8488,-1.22907c4.47717,0 13.73002,0 13.95098,0c0.6355,0 2.11545,0.01929 3.30693,1.23265c1.42387,1.28985 1.36431,2.60359 1.36431,3.17942c0,2.4768 0,7.81032 0,12.16494c0,0.69212 -0.48431,2.01064 -1.45313,2.89579c-0.90748,0.88066 -2.45173,1.36908 -3.21813,1.36908c-4.90789,0 -10.63496,0 -13.31373,0c-0.60621,0 -2.17447,-0.37273 -3.21823,-1.33132c-1.031,-0.84195 -1.35866,-2.30319 -1.35866,-3.00915c0,0 0,-9.53248 0,-12.01375z" fill-opacity="0.01569" fill="#ededed" stroke="#000000"/><path d="M642.39415,37.17282c0,-0.63227 0.09065,-2.14386 1.04046,-3.10818c1.32436,-1.12186 2.05781,-1.17235 2.71732,-1.17235c4.27053,0 13.09631,0 13.30708,0c0.60617,0 2.0178,0.0184 3.1543,1.17575c1.35814,1.23032 1.30135,2.48342 1.30135,3.03268c0,2.36248 0,7.44984 0,11.60346c0,0.66018 -0.46195,1.91784 -1.38605,2.76214c-0.8656,0.84001 -2.33857,1.30589 -3.0696,1.30589c-4.68137,0 -10.14411,0 -12.69923,0c-0.57823,0 -2.07411,-0.35553 -3.0697,-1.26987c-0.98341,-0.80308 -1.29594,-2.19689 -1.29594,-2.87026c0,0 0,-9.09251 0,-11.45925z" fill-opacity="0.01569" fill="#ededed" stroke="#000000"/><path d="M670.06769,37.61285c0,-0.63227 0.09065,-2.14386 1.04046,-3.10818c1.32436,-1.12186 2.05781,-1.17235 2.71732,-1.17235c4.27053,0 13.09631,0 13.30708,0c0.60617,0 2.0178,0.0184 3.1543,1.17575c1.35814,1.23032 1.30135,2.48342 1.30135,3.03268c0,2.36248 0,7.44984 0,11.60346c0,0.66018 -0.46195,1.91784 -1.38605,2.76214c-0.8656,0.84001 -2.33857,1.30589 -3.0696,1.30589c-4.68137,0 -10.14411,0 -12.69923,0c-0.57823,0 -2.07411,-0.35553 -3.0697,-1.26987c-0.98341,-0.80308 -1.29594,-2.19689 -1.29594,-2.87026c0,0 0,-9.09251 0,-11.45925z" fill-opacity="0.01569" fill="#ededed" stroke="#000000"/><path d="M671.64679,37.61285c0,-0.63227 0.09065,-2.14386 1.04046,-3.10818c1.32436,-1.12186 2.05781,-1.17235 2.71732,-1.17235c4.27053,0 13.09631,0 13.30708,0c0.60617,0 2.0178,0.0184 3.1543,1.17575c1.35814,1.23032 1.30135,2.48342 1.30135,3.03268c0,2.36248 0,7.44984 0,11.60346c0,0.66018 -0.46195,1.91784 -1.38605,2.76214c-0.8656,0.84001 -2.33857,1.30589 -3.0696,1.30589c-4.68137,0 -10.14411,0 -12.69923,0c-0.57823,0 -2.07411,-0.35553 -3.0697,-1.26987c-0.98341,-0.80308 -1.29594,-2.19689 -1.29594,-2.87026c0,0 0,-9.09251 0,-11.45925z" fill-opacity="0.01569" fill="#ededed" stroke="#000000"/><path d="M674.83559,36.06152c0,-0.63227 0.09065,-2.14386 1.04046,-3.10818c1.32436,-1.12186 2.05781,-1.17235 2.71732,-1.17235c4.27053,0 13.09631,0 13.30708,0c0.60617,0 2.0178,0.0184 3.1543,1.17575c1.35814,1.23032 1.30135,2.48342 1.30135,3.03268c0,2.36248 0,7.44984 0,11.60346c0,0.66018 -0.46195,1.91784 -1.38605,2.76214c-0.8656,0.84001 -2.33857,1.30589 -3.0696,1.30589c-4.68137,0 -10.14411,0 -12.69923,0c-0.57823,0 -2.07411,-0.35553 -3.0697,-1.26987c-0.98341,-0.80308 -1.29594,-2.19689 -1.29594,-2.87026c0,0 0,-9.09251 0,-11.45925z" fill-opacity="0.01569" fill="#ededed" stroke="#000000"/><path d="M646.61344,37.87599c0,-0.63227 0.09065,-2.14386 1.04046,-3.10818c1.32436,-1.12186 2.05781,-1.17235 2.71732,-1.17235c4.27053,0 13.09631,0 13.30708,0c0.60617,0 2.0178,0.0184 3.1543,1.17575c1.35814,1.23032 1.30135,2.48342 1.30135,3.03268c0,2.36248 0,7.44984 0,11.60346c0,0.66018 -0.46195,1.91784 -1.38605,2.76214c-0.8656,0.84001 -2.33857,1.30589 -3.0696,1.30589c-4.68137,0 -10.14411,0 -12.69923,0c-0.57823,0 -2.07411,-0.35553 -3.0697,-1.26987c-0.98341,-0.80308 -1.29594,-2.19689 -1.29594,-2.87026c0,0 0,-9.09251 0,-11.45925z" fill-opacity="0.01569" fill="#ededed" stroke="#000000"/><path d="M648.26708,36.66776c0,-0.66287 0.09504,-2.2476 1.09081,-3.25858c1.38845,-1.17615 2.15739,-1.22907 2.8488,-1.22907c4.47717,0 13.73002,0 13.95098,0c0.6355,0 2.11545,0.01929 3.30693,1.23265c1.42387,1.28985 1.36431,2.60359 1.36431,3.17942c0,2.4768 0,7.81032 0,12.16494c0,0.69212 -0.48431,2.01064 -1.45313,2.89579c-0.90748,0.88066 -2.45173,1.36908 -3.21813,1.36908c-4.90789,0 -10.63496,0 -13.31373,0c-0.60621,0 -2.17447,-0.37273 -3.21823,-1.33132c-1.031,-0.84195 -1.35866,-2.30319 -1.35866,-3.00915c0,0 0,-9.53248 0,-12.01375z" fill-opacity="0.01569" fill="#ededed" stroke="#000000"/></g></g></svg>