<svg version="1.1" xmlns="http://www.w3.org/2000/svg" xmlns:xlink="http://www.w3.org/1999/xlink" width="40.00001" height="39.99999" viewBox="0,0,40.00001,39.99999"><defs><linearGradient x1="400.00013" y1="205.00014" x2="400.00013" y2="245.00013" gradientUnits="userSpaceOnUse" id="color-1"><stop offset="0" stop-color="#ffffff"/><stop offset="1" stop-color="#ededed"/></linearGradient><linearGradient x1="399.99991" y1="215.90488" x2="399.99991" y2="236.1162" gradientUnits="userSpaceOnUse" id="color-2"><stop offset="0" stop-color="#46e160"/><stop offset="1" stop-color="#46e05f" stop-opacity="0.54118"/></linearGradient><linearGradient x1="399.99991" y1="215.90488" x2="399.99991" y2="236.1162" gradientUnits="userSpaceOnUse" id="color-3"><stop offset="0" stop-color="#46e160"/><stop offset="1" stop-color="#46e05f" stop-opacity="0.54118"/></linearGradient><linearGradient x1="401.93663" y1="220.36284" x2="401.93663" y2="230.71533" gradientUnits="userSpaceOnUse" id="color-4"><stop offset="0" stop-color="#ffffff" stop-opacity="0.64706"/><stop offset="1" stop-color="#e9e9e9"/></linearGradient><linearGradient x1="390.9049" y1="213.8838" x2="390.9049" y2="216.63989" gradientUnits="userSpaceOnUse" id="color-5"><stop offset="0" stop-color="#f9f9f9"/><stop offset="1" stop-color="#e5e5e5" stop-opacity="0.83922"/></linearGradient><linearGradient x1="409.0951" y1="213.8838" x2="409.0951" y2="216.63989" gradientUnits="userSpaceOnUse" id="color-6"><stop offset="0" stop-color="#f9f9f9"/><stop offset="1" stop-color="#e5e5e5" stop-opacity="0.83922"/></linearGradient></defs><g transform="translate(-380.00011,-205.00014)"><g stroke-miterlimit="10"><path d="M380.00014,224.64299c0,-6.5333 0,-10.77784 1.27167,-13.27284c1.11833,-2.195 2.90334,-3.98001 5.09834,-5.09834c2.49667,-1.27167 6.73954,-1.27167 13.27284,-1.27167h0.71429c6.535,0 10.77785,0 13.27285,1.27167c2.195,1.11833 3.98,2.90334 5.0983,5.09834c1.2717,2.495 1.2717,6.73954 1.2717,13.27284v0.71429c0,6.5333 0,10.77785 -1.2717,13.27285c-1.1183,2.195 -2.9033,3.98 -5.0983,5.0983c-2.495,1.2717 -6.73786,1.2717 -13.27286,1.2717h-0.71429c-6.5333,0 -10.77618,0 -13.27285,-1.2717c-2.195,-1.1183 -3.98001,-2.9033 -5.09834,-5.0983c-1.27167,-2.495 -1.27167,-6.73955 -1.27167,-13.27285z" fill="url(#color-1)" stroke="none" stroke-width="1" stroke-linecap="butt" stroke-linejoin="miter"/><path d="M389.89425,226.01055c0,-5.5812 4.52445,-10.10568 10.10564,-10.10568c5.58125,0 10.1057,4.52448 10.1057,10.10568c0,5.5812 -4.52446,10.10564 -10.1057,10.10564c-5.58119,0 -10.10564,-4.52445 -10.10564,-10.10564z" fill="url(#color-2)" stroke="url(#color-3)" stroke-width="1.5" stroke-linecap="butt" stroke-linejoin="round"/><path d="M404.07874,230.71533l-4.28422,-4.28423l0.00066,-6.06825" fill="none" stroke="url(#color-4)" stroke-width="1.5" stroke-linecap="round" stroke-linejoin="round"/><path d="M388.97563,216.63989l3.85853,-2.75609" fill="url(#color-5)" stroke="#46e160" stroke-width="1.5" stroke-linecap="round" stroke-linejoin="round"/><path d="M411.02437,216.63989l-3.85852,-2.75609" fill="url(#color-6)" stroke="#46e160" stroke-width="1.5" stroke-linecap="round" stroke-linejoin="round"/></g></g></svg>