<svg version="1.1" xmlns="http://www.w3.org/2000/svg" xmlns:xlink="http://www.w3.org/1999/xlink" width="23.49457" height="21.70109" viewBox="0,0,23.49457,21.70109"><defs><linearGradient x1="399.25669" y1="220.39036" x2="399.25669" y2="221.89036" gradientUnits="userSpaceOnUse" id="color-1"><stop offset="0" stop-color="#ffffff"/><stop offset="1" stop-color="#ffffff" stop-opacity="0.44314"/></linearGradient><linearGradient x1="399.25669" y1="221.52635" x2="399.25669" y2="226.54389" gradientUnits="userSpaceOnUse" id="color-2"><stop offset="0" stop-color="#ffffff"/><stop offset="1" stop-color="#ffffff" stop-opacity="0.44314"/></linearGradient><linearGradient x1="399.64264" y1="217.66669" x2="399.64264" y2="231.9474" gradientUnits="userSpaceOnUse" id="color-3"><stop offset="0" stop-color="#ffffff"/><stop offset="1" stop-color="#ffffff" stop-opacity="0.44314"/></linearGradient><linearGradient x1="404.41004" y1="228.08773" x2="404.41004" y2="232.33337" gradientUnits="userSpaceOnUse" id="color-4"><stop offset="0" stop-color="#ffffff"/><stop offset="1" stop-color="#ffffff" stop-opacity="0.44314"/></linearGradient></defs><g transform="translate(-388.61746,-214.25161)"><g stroke-miterlimit="10"><path d="M396.9409,221.14036h4.63158" fill="none" stroke="url(#color-1)" stroke-width="1.5" stroke-linecap="round" stroke-linejoin="round"/><path d="M399.25669,221.52635v5.01754" fill="none" stroke="url(#color-2)" stroke-width="1.5" stroke-linecap="round" stroke-linejoin="round"/><path d="M398.15395,231.9474h-4.68674c-0.42632,0 -0.77193,-0.3456 -0.77193,-0.77193v-12.73685c0,-0.42633 0.34561,-0.77193 0.77193,-0.77193h12.35088c0.42633,0 0.77193,0.3456 0.77193,0.77193v3.7503" fill="none" stroke="url(#color-3)" stroke-width="1.5" stroke-linecap="round" stroke-linejoin="round"/><path d="M407.30478,228.08773l-3.47369,4.24562l-2.31579,-1.92982" fill="none" stroke="url(#color-4)" stroke-width="1.5" stroke-linecap="round" stroke-linejoin="round"/><path d="M388.61746,235.9527v-21.70109h23.49457v21.70109z" fill-opacity="0.00392" fill="#ffffff" stroke="none" stroke-width="0" stroke-linecap="butt" stroke-linejoin="miter"/></g></g></svg>